<svg xmlns="http://www.w3.org/2000/svg" height="32" width="32" viewBox="0 0 31.999999 31.999996"><path d="m9 1031.4c0-0.2706 0.1016-0.5098 0.293-0.7012l2.9687-2.9727c0.9425-0.9817 2.3958 0.4716 1.4141 1.4141l-1.252 1.2598h9.5762c0.554 0 1 0.446 1 1s-0.446 0.9989-1 0.9989h-9.5762l1.252 1.2598c0.9817 0.9425-0.4716 2.3958-1.4141 1.4141l-2.9687-2.9727c-0.1914-0.1914-0.2971-0.4294-0.293-0.7zm14 10c0-0.2706-0.1016-0.5098-0.293-0.7012l-2.9687-2.9727c-0.9425-0.9817-2.3958 0.4716-1.4141 1.4141l1.252 1.2598h-9.5762c-0.554 0-1 0.446-1 1s0.446 0.9989 1 0.9989h9.5762l-1.252 1.2598c-0.9817 0.9425 0.4716 2.3958 1.4141 1.4141l2.9687-2.9727c0.1914-0.1914 0.2971-0.4294 0.293-0.7z" transform="translate(0 -1020.4)"/></svg>
