<svg xmlns="http://www.w3.org/2000/svg" height="32" width="32" viewBox="0 0 31.999999 31.999996"><path d="m16.994 1028.4h-3.9827c-1.3603-0.024-1.3547 2.0311 0.006 2h1.5811l-6.3052 6.2913c-0.39174 0.3918-0.39174 1.0225 0 1.4142 0.39174 0.3918 1.0225 0.3918 1.4142 0l6.292-6.2781v1.5567c-0.0277 1.3607 2.0277 1.3607 2 0v-3.98c0.00006-0.2706-0.12247-0.5227-0.31294-0.7098-0.19047-0.1872-0.43171-0.2951-0.69247-0.2943zm-1.9889 15.999h3.9827c1.3603 0.024 1.3547-2.0311-0.006-2h-1.5811l6.3052-6.2913c0.39174-0.3918 0.39174-1.0225 0-1.4142-0.39174-0.3918-1.0225-0.3918-1.4142 0l-6.292 6.2781v-1.5567c0.0277-1.3607-2.0277-1.3607-2 0v3.98c-0.00006 0.2706 0.12247 0.5227 0.31294 0.7098 0.19047 0.1872 0.43171 0.2951 0.69247 0.2943z" transform="translate(0 -1020.4)"/></svg>
