<svg xmlns="http://www.w3.org/2000/svg" height="32" width="32" viewBox="0 0 31.999999 31.999996"><path d="m11.001 1043.4c-0.2706 0-0.50984-0.1016-0.70117-0.293l-2.9727-2.9687c-0.98171-0.9425 0.47156-2.3958 1.4141-1.4141l1.2598 1.252v-9.5762c0-0.554 0.446-1 1-1s0.99883 0.446 0.99883 1v9.5762l1.2598-1.252c0.9425-0.9817 2.3958 0.4716 1.4141 1.4141l-2.9727 2.9687c-0.19133 0.1914-0.42941 0.2971-0.70001 0.293zm10-14c-0.2706 0-0.50984 0.1016-0.70117 0.293l-2.9727 2.9687c-0.98171 0.9425 0.47156 2.3958 1.4141 1.4141l1.2598-1.252v9.5762c0 0.554 0.446 1 1 1s0.99883-0.446 0.99883-1v-9.5762l1.2598 1.252c0.9425 0.9817 2.3958-0.4716 1.4141-1.4141l-2.9727-2.9687c-0.19133-0.1914-0.42941-0.2971-0.70001-0.293z" transform="translate(0 -1020.4)"/></svg>
