<svg xmlns="http://www.w3.org/2000/svg" height="32" width="32" viewBox="0 0 31.999999 31.999998"><path d="m16 1030.4a7 7 0 0 0 -2.9805 0.6758 3.0762 3.0762 0 0 0 1.1133 1.6894 5 5 0 0 1 1.8672 -0.3652 5 5 0 0 1 1.8672 0.3652 3.0762 3.0762 0 0 0 1.1133 -1.6914 7 7 0 0 0 -2.9805 -0.6738zm5.8594 7.0039a3 3 0 0 0 -0.8692 0.1719 5 5 0 0 1 -1.8515 3.7129 3 3 0 0 0 1.1933 1.5996 7 7 0 0 0 2.6621 -5.3164 3 3 0 0 0 -1.1347 -0.168zm-11.859 0a3 3 0 0 0 -0.9922 0.1719 7 7 0 0 0 2.6563 5.3222 3 3 0 0 0 1.2011 -1.6054 5 5 0 0 1 -1.8593 -3.711 3 3 0 0 0 -1.0059 -0.1777zm1.0273-12a7 7 0 0 0 -2.0273 4.9238 7 7 0 0 0 0.7383 3.0899 7 7 0 0 0 -6.7383 6.9824h2a5 5 0 0 1 5 -5 5 5 0 0 1 5 5 5 5 0 0 1 -5 5v2a7 7 0 0 0 6 -3.4102 7 7 0 0 0 6 3.4102v-2a5 5 0 0 1 -5 -5 5 5 0 0 1 5 -5 5 5 0 0 1 5 5h2a7 7 0 0 0 -6.7324 -6.9902 7 7 0 0 0 0.7324 -3.086 7 7 0 0 0 -1.9648 -4.8535l-1.4121 1.4121a5 5 0 0 1 1.3769 3.4414 5 5 0 0 1 -5 5 5 5 0 0 1 -5 -5 5 5 0 0 1 1.4434 -3.5078l-1.4161-1.416zm4.9727 10.924a1 1 0 0 1 1 1 1 1 0 0 1 -1 1 1 1 0 0 1 -1 -1 1 1 0 0 1 1 -1z" transform="translate(0 -1020.4)"/></svg>
