<svg xmlns="http://www.w3.org/2000/svg" height="32" width="32" viewBox="0 0 31.999999 31.999998"><path d="m21 1028.4c-2.7496 0-5 2.2503-5 5v6c0 2.7496 2.2504 5 5 5s5-2.2504 5-5c0.0191-1.3524-2.0191-1.3524-2 0 0 1.6686-1.3313 3-3 3s-3-1.3314-3-3v-6c0-1.6687 1.3313-3 3-3s3 1.3313 3 3c-0.0191 1.3523 2.0191 1.3523 2 0 0-2.7497-2.2504-5-5-5zm-9.9999 0c-1.6569 0-3 1.3432-3 3s1.3431 3 3 3 3-1.3432 3-3-1.3431-3-3-3zm0 2c0.5523 0 1 0.4476 1 1 0 0.5523-0.4477 1-1 1s-1-0.4477-1-1c0-0.5524 0.44771-1 1-1z" transform="translate(0 -1020.4)"/></svg>
