<svg xmlns="http://www.w3.org/2000/svg" height="32" width="32" viewBox="0 0 31.999999 31.999998"><path d="m15.001 1027.4c-3.2637 0-6.1985 1.9876-7.416 5.0156-3.1442 0.2186-5.5834 2.8326-5.584 5.9844 0 3.1615 2.4483 5.7416 5.5508 5.9727l1.1387-1.9727h-0.68945c-2.2091 0-4-1.7909-4-4s1.7909-4 4-4c0.36119 0 0.72057 0.051 1.0684 0.1484 0.4232-2.9516 2.9498-5.1446 5.9316-5.1484 2.8668 0 5.3313 2.0325 5.8828 4.8457 0.76276-0.5481 1.6779-0.8438 2.6172-0.8457 2.4853 0 4.5 2.0147 4.5 4.5s-2.0147 4.5-4.5 4.5h-0.5l-1.1523 2h1.6523c3.5898 0 6.5-2.9101 6.5-6.5 0-3.5898-2.9102-6.5-6.5-6.5-0.49867 0-0.99543 0.062-1.4805 0.1777-1.399-2.5722-4.0915-4.1747-7.0195-4.1777zm0.95413 6.9972c-0.76033 0.039-1.3945 1.0314-0.6582 1.7382l1.5762 1.5762c-0.73771-0.2734-1.5191-0.3708-2.2852-0.2969-1.0303 0.1-2.0312 0.5094-2.8496 1.2129-1.6369 1.4072-2.187 3.7079-1.3496 5.6895 0.83735 1.9816 2.8655 3.2111 5.0273 3.0723 2.1618-0.1389 4.0112-1.6196 4.5781-3.6934a1.0001 1.0001 0 1 0 -1.9277 -0.5273c-0.33904 1.2403-1.4484 2.1391-2.7793 2.2246-1.3309 0.085-2.5545-0.6653-3.0566-1.8536-0.5021-1.1882-0.18216-2.5414 0.8125-3.3964 0.91474-0.7864 2.2097-0.9604 3.3066-0.4786l-1.0508 1.045c-0.98378 0.9398 0.46494 2.3965 1.4102 1.4179l3-2.9902c0.18494-0.1838 0.29092-0.4326 0.29492-0.6934 0.004-0.2706-0.10156-0.5313-0.29297-0.7226l-3-3c-0.23563-0.2454-0.50241-0.3371-0.75586-0.3242z" transform="translate(0 -1020.4)"/></svg>
