<svg xmlns="http://www.w3.org/2000/svg" height="32" width="32" viewBox="0 0 31.999999 31.999998"><path d="m3.0001 1045.4c-0.55228 0.0001-1 0.4497-1 1.0019 0 0.5523 0.44772 1 1 1h16.5c0.68374 0 1.2722 0.4509 1.4492 1.1114 0.17696 0.6604-0.10708 1.3456-0.69922 1.6875-0.59214 0.3418-1.3271 0.2452-1.8106-0.2383-0.94251-0.9817-2.3957 0.4715-1.4141 1.414 1.1167 1.1168 2.8569 1.3463 4.2246 0.5567 1.3677-0.7897 2.0396-2.412 1.6309-3.9375-0.40875-1.5254-1.8016-2.5957-3.3809-2.5957zm12-18c-3.2637 0-6.1985 1.9876-7.416 5.0156-3.1442 0.2186-5.5834 2.8326-5.584 5.9844 0 3.3137 2.6863 6 6 6h18.5c1.5793 0 2.9721-1.0683 3.3809-2.5937 0.40875-1.5255-0.26316-3.1479-1.6309-3.9375-1.3677-0.7897-3.1079-0.5601-4.2246 0.5566-0.98167 0.9425 0.47155 2.3957 1.4141 1.4141 0.48348-0.4835 1.2184-0.5802 1.8106-0.2383 0.59214 0.3418 0.87618 1.027 0.69922 1.6875-0.17697 0.6604-0.76548 1.1113-1.4492 1.1113h-18.5c-2.2091 0-4-1.7909-4-4s1.7909-4 4-4c0.36119 0 0.72057 0.051 1.0684 0.1484 0.4232-2.9516 2.9498-5.1446 5.9316-5.1484 2.8668 0 5.3313 2.0325 5.8828 4.8457 0.76276-0.5481 1.6779-0.8438 2.6172-0.8457 1.5842 0 2.9716 0.8232 3.7734 2.0606 0.94121 0.1344 1.8315 0.5106 2.584 1.0917-0.62058-2.943-3.2297-5.1523-6.3574-5.1523-0.49867 0-0.99543 0.062-1.4805 0.1777-1.399-2.5722-4.0915-4.1747-7.0195-4.1777z" transform="translate(0 -1020.4)"/></svg>
