<svg xmlns="http://www.w3.org/2000/svg" height="32" width="32" viewBox="0 0 31.999999 31.999996"><path d="m16.118 1028.4a8 8 0 0 0 -5.7734 2.3438 8 8 0 0 0 0 11.312 8 8 0 0 0 11.312 0 8 8 0 0 0 0 -11.312 8 8 0 0 0 -5.539 -2.3438zm-0.20508 2a6 6 0 0 1 4.3301 1.7578 6 6 0 0 1 0 8.4844 6 6 0 0 1 -8.4844 0 6 6 0 0 1 0 -8.4844 6 6 0 0 1 4.1543 -1.7578zm3.623 2.4649s-4.1682 1.34-4.9492 2.1211c-0.78105 0.781-0.78105 2.047 0 2.8281 0.78105 0.781 2.0471 0.781 2.8281 0 0.78105-0.7811 2.1211-4.9492 2.1211-4.9492zm-3.5352 2.5351a1 1 0 0 1 1 1 1 1 0 0 1 -1 1 1 1 0 0 1 -1 -1 1 1 0 0 1 1 -1z" transform="translate(0 -1020.4)"/></svg>
