<svg xmlns="http://www.w3.org/2000/svg" height="32" width="32" viewBox="0 0 31.999999 31.999996"><path d="m15.883 1028.4a8 8 0 0 0 -5.5391 2.3438 8 8 0 0 0 0 11.312 8 8 0 0 0 11.312 0 8 8 0 0 0 0 -11.312 8 8 0 0 0 -5.7734 -2.3438zm0.2051 2a6 6 0 0 1 4.1543 1.7578 6 6 0 0 1 0 8.4844 6 6 0 0 1 -8.4844 0 6 6 0 0 1 0 -8.4844 6 6 0 0 1 4.3301 -1.7578zm-0.088 4c-0.5119 0-1.0236 0.1954-1.4141 0.586-0.781 0.781-0.781 2.047 0 2.8281 0.7811 0.781 4.9492 2.1211 4.9492 2.1211s-1.34-4.1682-2.1211-4.9492c-0.3905-0.3906-0.9022-0.586-1.414-0.586zm0 1a1 1 0 0 1 1 1 1 1 0 0 1 -1 1 1 1 0 0 1 -1 -1 1 1 0 0 1 1 -1z" transform="translate(0 -1020.4)"/></svg>
