<?xml version="1.0" encoding="UTF-8" standalone="no"?>
<!-- Created with Inkscape (http://www.inkscape.org/) -->
<svg id="svg2" xmlns:rdf="http://www.w3.org/1999/02/22-rdf-syntax-ns#" xmlns="http://www.w3.org/2000/svg" height="32" width="32" version="1.1" xmlns:cc="http://creativecommons.org/ns#" xmlns:dc="http://purl.org/dc/elements/1.1/" viewBox="0 0 31.999999 31.999996">
 <metadata id="metadata7">
  <rdf:RDF>
   <cc:Work rdf:about="">
    <dc:format>image/svg+xml</dc:format>
    <dc:type rdf:resource="http://purl.org/dc/dcmitype/StillImage"/>
    <dc:title/>
   </cc:Work>
  </rdf:RDF>
 </metadata>
 <g id="layer1" transform="translate(0 -1020.4)">
  <path id="path5102-4" style="enable-background:new" d="m15.883 1028.4c-2.0809 0.031-4.0678 0.8718-5.5391 2.3438-3.1234 3.124-3.1234 8.1884 0 11.312 3.1241 3.1233 8.1884 3.1233 11.313 0 3.1234-3.1241 3.1234-8.1885 0-11.312-1.5286-1.5295-3.6113-2.3749-5.7734-2.3438zm0.20508 2c1.5607 0.023 3.0509 0.6538 4.1543 1.7578 2.3425 2.3431 2.3425 6.1414 0 8.4844-2.343 2.3425-6.1413 2.3425-8.4844 0-2.3425-2.343-2.3425-6.1413 0-8.4844 1.1465-1.147 2.7085-1.7811 4.3301-1.7578zm3.4473 2.4648s-2.825 0.9132-4.2539 1.6719c-0.59723 0.2218-0.85181 0.6709-1.1445 1.1446-0.75873 1.4288-1.6719 4.2539-1.6719 4.2539 1.912-0.833 4.3112-1.057 5.3984-2.8164 0.75873-1.4289 1.6719-4.254 1.6719-4.254zm-3.5352 2.5352a1 1 0 0 1 1 1 1 1 0 0 1 -1 1 1 1 0 0 1 -1 -1 1 1 0 0 1 1 -1z"/>
 </g>
</svg>
