<svg xmlns="http://www.w3.org/2000/svg" height="32" width="32" viewBox="0 0 31.999999 31.999996"><path d="m15.883 1028.4a8 8 0 0 0 -5.5391 2.3438 8 8 0 0 0 0 11.312 8 8 0 0 0 11.312 0 8 8 0 0 0 0 -11.312 8 8 0 0 0 -5.7734 -2.3438zm0.2051 2a6 6 0 0 1 4.1543 1.7578 6 6 0 0 1 0 8.4844 6 6 0 0 1 -8.4844 0 6 6 0 0 1 0 -8.4844 6 6 0 0 1 4.3301 -1.7578zm-3.6231 2.4649s1.3401 4.1681 2.1211 4.9492c0.7811 0.781 2.0471 0.781 2.8281 0 0.7811-0.7811 0.7811-2.0471 0-2.8281-0.781-0.7811-4.9492-2.1211-4.9492-2.1211zm3.5352 2.5351a1 1 0 0 1 1 1 1 1 0 0 1 -1 1 1 1 0 0 1 -1 -1 1 1 0 0 1 1 -1z" transform="translate(0 -1020.4)"/></svg>
