<svg xmlns="http://www.w3.org/2000/svg" height="32" width="32" viewBox="0 0 31.999999 31.999998"><path d="m12 1020.4c-0.554 0-1 0.446-1 1v1c0 0.554 0.446 1 1 1s1-0.446 1-1v-1c0-0.554-0.446-1-1-1zm-7.7773 3.2207c-0.2556 0-0.5112 0.099-0.7071 0.2949-0.3917 0.3918-0.3917 1.0224 0 1.4141l0.7071 0.707c0.3917 0.3918 1.0223 0.3918 1.414 0 0.3918-0.3917 0.3918-1.0223 0-1.414l-0.707-0.7071c-0.1959-0.1958-0.4514-0.2949-0.707-0.2949zm15.555 0c-0.2557 0-0.5112 0.099-0.7071 0.2949l-0.707 0.7071c-0.3917 0.3917-0.3917 1.0223 0 1.414 0.3917 0.3918 1.0223 0.3918 1.4141 0l0.707-0.707c0.3917-0.3917 0.3917-1.0223 0-1.4141-0.1959-0.1958-0.4514-0.2949-0.707-0.2949zm-7.7774 0.7793c-4.4183 0-8 3.5817-8 8 0 1.5286 0.4432 3.0245 1.2695 4.3106-0.7968 1.0203-1.2692 2.3025-1.2695 3.6894 0 3.3137 2.6863 6 6 6h2l-1 5 5-7h-3l2-4h-3l-1.334 4h-0.666c-2.2091 0-4-1.7909-4-4s1.7909-4 4-4c0.3612 0 0.7206 0.051 1.0684 0.1484 0.4232-2.9516 2.9498-5.1446 5.9316-5.1484 2.8668 0 5.3313 2.0325 5.8828 4.8457 0.7628-0.5481 1.6779-0.8438 2.6172-0.8457 2.4853 0 4.5 2.0147 4.5 4.5s-2.0147 4.5-4.5 4.5h-0.5l-1.1562 2h1.6562c3.5899 0 6.5-2.9101 6.5-6.5 0-3.5898-2.9101-6.5-6.5-6.5-0.4987 0-0.9954 0.062-1.4805 0.1777-0.9726-1.7883-2.5776-3.0912-4.4453-3.7304-1.095-3.2524-4.1424-5.444-7.5742-5.4473zm0 2c2.1461 0 4.1272 1.1523 5.1953 3.0137-0.066 0-0.1293-0.014-0.1953-0.014-3.2637 0-6.1985 1.9875-7.416 5.0156-1.0325 0.072-1.9857 0.4052-2.8047 0.9277-0.5085-0.8977-0.7769-1.9115-0.7793-2.9433 0-3.3137 2.6863-6 6-6zm-11 5c-0.554 0-1 0.446-1 1s0.446 1 1 1h1c0.554 0 1-0.446 1-1s-0.446-1-1-1h-1zm18.123 11.008c-0.3868-0.049-0.7825 0.1324-0.9903 0.4922l-4.039 6.9961c-0.277 0.4798-0.1146 1.0921 0.3652 1.3691s1.0902 0.1107 1.3672-0.3691l4.039-6.9961c0.277-0.4798 0.1146-1.0882-0.3652-1.3652-0.1199-0.069-0.248-0.1108-0.3769-0.127zm4 0c-0.3868-0.049-0.7825 0.1324-0.9903 0.4922l-4.039 6.9961c-0.277 0.4798-0.1146 1.0921 0.3652 1.3691s1.0902 0.1107 1.3672-0.3691l4.039-6.9961c0.277-0.4798 0.1146-1.0882-0.3652-1.3652-0.1199-0.069-0.248-0.1108-0.3769-0.127z" transform="translate(0 -1020.4)"/></svg>
