<svg xmlns="http://www.w3.org/2000/svg" height="32" width="32" viewBox="0 0 31.999999 31.999998"><path style="text-decoration-color:#000;isolation:auto;mix-blend-mode:normal;block-progression:tb;text-decoration-line:none;text-decoration-style:solid;text-indent:0;text-transform:none" d="m15.95 1024.4c-0.4391 0.029-0.8077 0.3412-0.9082 0.7695l-3.3047 14.041-1.8027-4.207c-0.1579-0.3677-0.5198-0.6059-0.92-0.6055h-4c-1.3523-0.019-1.3523 2.0192 0 2h3.3399l2.7402 6.3946c0.3807 0.8865 1.6721 0.7732 1.8926-0.166l2.7656-11.754 2.2715 16.66c0.1432 1.0486 1.6041 1.1854 1.9395 0.1817l3.7715-11.316h3.251c1.3523 0.019 1.3523-2.0191 0-2h-3.9718c-0.4305-0.0002-0.8129 0.2752-0.9492 0.6836l-2.6406 7.9239-2.4199-17.742c-0.071-0.5199-0.5311-0.8967-1.0547-0.8633z" fill-rule="evenodd" color="#000" solid-color="#000000" white-space="normal" transform="translate(0 -1020.4)"/></svg>
