<?xml version="1.0" encoding="UTF-8" standalone="no"?>
<!-- Created with Inkscape (http://www.inkscape.org/) -->
<svg id="svg2" xmlns:rdf="http://www.w3.org/1999/02/22-rdf-syntax-ns#" xmlns="http://www.w3.org/2000/svg" height="32" width="32" version="1.1" xmlns:cc="http://creativecommons.org/ns#" xmlns:dc="http://purl.org/dc/elements/1.1/" viewBox="0 0 31.999999 31.999998">
 <metadata id="metadata7">
  <rdf:RDF>
   <cc:Work rdf:about="">
    <dc:format>image/svg+xml</dc:format>
    <dc:type rdf:resource="http://purl.org/dc/dcmitype/StillImage"/>
    <dc:title/>
   </cc:Work>
  </rdf:RDF>
 </metadata>
 <g id="layer1" transform="translate(0 -1020.4)">
  <path id="rect8483-6-3" style="enable-background:new" d="m9.0003 1046.4h14c0.554 0 1 0.446 1 1s-0.446 1-1 1h-14c-0.554 0-1-0.446-1-1s0.446-1 1-1zm6.1277-22c-2.0433 2.4977-3.1247 5.773-3.1278 9 0.006 1.5489 0.26839 3.086 0.77734 4.5489 0 0-2.7773-2.5489-1.7773-6.5489-2 3-2 4.8458-2 6 0 3.866 3.134 7 7 7s7-3.134 7-7c0-6.7737-6.4804-7.309-7.8722-13zm-0.075 5.2891c5.3181 2.6338 5.967 5.6582 5.9473 7.7656-0.03 2.7615-2.2932 4.9757-5.0547 4.9453-1.5528-0.019-3.0084-0.7591-3.9394-2.0019 5.959 0.9348 5.5922-6.0242 3.0469-10.709z"/>
 </g>
</svg>
