<svg xmlns="http://www.w3.org/2000/svg" height="32" width="32" viewBox="0 0 31.999999 31.999998"><path style="text-indent:0;text-decoration-line:none;text-decoration-style:solid;text-decoration-color:#000;text-transform:none;block-progression:tb;isolation:auto;mix-blend-mode:normal" d="m 11.194,1037.4 a 1.0022,1.005 0 0 0 -0.69284,0.2944 c -1.3843,1.3882 -3.3736,1.9772 -5.2883,1.5681 a 1.0025,1.0053 0 0 0 -0.41688,1.9666 c 2.2831,0.4878 4.5672,-0.2304 6.3725,-1.6663 1.3785,1.1192 3.0425,1.837 4.8322,1.837 1.7898,0 3.4538,-0.7178 4.8322,-1.837 1.8054,1.4359 4.0895,2.1541 6.3725,1.6663 a 1.0025,1.0053 0 0 0 -0.41688,-1.9666 c -1.9147,0.4091 -3.904,-0.1799 -5.2883,-1.5681 a 1.0022,1.005 0 0 0 -0.69284,-0.2944 1.0022,1.005 0 0 0 -0.72415,0.2944 c -1.0832,1.0862 -2.5507,1.6957 -4.0826,1.6957 -1.5319,0 -2.9994,-0.6095 -4.0826,-1.6957 A 1.0022,1.005 0 0 0 11.19385,1037.4 Z m -1e-5,-6 a 1.0022,1.005 0 0 0 -0.69284,0.2944 c -1.3843,1.3882 -3.3736,1.9772 -5.2883,1.5681 a 1.0025,1.0053 0 0 0 -0.41688,1.9666 c 2.2831,0.4878 4.5672,-0.2304 6.3725,-1.6663 1.3785,1.1192 3.0425,1.837 4.8322,1.837 1.7898,0 3.4538,-0.7178 4.8322,-1.837 1.8054,1.4359 4.0895,2.1541 6.3725,1.6663 a 1.0025,1.0053 0 0 0 -0.41688,-1.9666 c -1.9147,0.4091 -3.904,-0.1799 -5.2883,-1.5681 a 1.0022,1.005 0 0 0 -0.69284,-0.2944 1.0022,1.005 0 0 0 -0.72415,0.2944 c -1.0832,1.0862 -2.5507,1.6957 -4.0826,1.6957 -1.5319,0 -2.9994,-0.6095 -4.0826,-1.6957 A 1.0022,1.005 0 0 0 11.19385,1031.4 Z" color="#000" white-space="normal" solid-color="#000000" transform="translate(0 -1021.4)"/></svg>
