<?xml version="1.0" encoding="UTF-8" standalone="no"?>
<!-- Created with Inkscape (http://www.inkscape.org/) -->

<svg
   xmlns:dc="http://purl.org/dc/elements/1.1/"
   xmlns:cc="http://creativecommons.org/ns#"
   xmlns:rdf="http://www.w3.org/1999/02/22-rdf-syntax-ns#"
   xmlns:svg="http://www.w3.org/2000/svg"
   xmlns="http://www.w3.org/2000/svg"
   xmlns:sodipodi="http://sodipodi.sourceforge.net/DTD/sodipodi-0.dtd"
   xmlns:inkscape="http://www.inkscape.org/namespaces/inkscape"
   id="svg2"
   height="32"
   width="32"
   version="1.1"
   viewBox="0 0 31.999999 31.999998"
   inkscape:version="0.91 r13725"
   sodipodi:docname="flood.svg">
  <defs
     id="defs8" />
  <sodipodi:namedview
     pagecolor="#ffffff"
     bordercolor="#666666"
     borderopacity="1"
     objecttolerance="10"
     gridtolerance="10"
     guidetolerance="10"
     inkscape:pageopacity="0"
     inkscape:pageshadow="2"
     inkscape:window-width="640"
     inkscape:window-height="480"
     id="namedview6"
     showgrid="false"
     inkscape:zoom="7.375"
     inkscape:cx="13.627119"
     inkscape:cy="16"
     inkscape:window-x="0"
     inkscape:window-y="24"
     inkscape:window-maximized="0"
     inkscape:current-layer="svg2" />
  <metadata
     id="metadata7">
    <rdf:RDF>
      <cc:Work
         rdf:about="">
        <dc:format>image/svg+xml</dc:format>
        <dc:type
           rdf:resource="http://purl.org/dc/dcmitype/StillImage" />
        <dc:title />
      </cc:Work>
    </rdf:RDF>
  </metadata>
  <g
     id="layer1"
     transform="translate(0,-1021.3998)">
    <path
       id="path6180-7"
       style="color:#000000;text-indent:0;text-decoration:none;text-decoration-line:none;text-decoration-style:solid;text-decoration-color:#000000;text-transform:none;block-progression:tb;white-space:normal;isolation:auto;mix-blend-mode:normal;solid-color:#000000;color-rendering:auto;image-rendering:auto;shape-rendering:auto"
       d="m 11.194,1037.4 a 1.0022,1.005 0 0 0 -0.69284,0.2944 c -1.3843,1.3882 -3.3736,1.9772 -5.2883,1.5681 a 1.0025,1.0053 0 0 0 -0.41688,1.9666 c 2.2831,0.4878 4.5672,-0.2304 6.3725,-1.6663 1.3785,1.1192 3.0425,1.837 4.8322,1.837 1.7898,0 3.4538,-0.7178 4.8322,-1.837 1.8054,1.4359 4.0895,2.1541 6.3725,1.6663 a 1.0025,1.0053 0 0 0 -0.41688,-1.9666 c -1.9147,0.4091 -3.904,-0.1799 -5.2883,-1.5681 a 1.0022,1.005 0 0 0 -0.69284,-0.2944 1.0022,1.005 0 0 0 -0.72415,0.2944 c -1.0832,1.0862 -2.5507,1.6957 -4.0826,1.6957 -1.5319,0 -2.9994,-0.6095 -4.0826,-1.6957 A 1.0022,1.005 0 0 0 11.19385,1037.4 Z m -1e-5,-6 a 1.0022,1.005 0 0 0 -0.69284,0.2944 c -1.3843,1.3882 -3.3736,1.9772 -5.2883,1.5681 a 1.0025,1.0053 0 0 0 -0.41688,1.9666 c 2.2831,0.4878 4.5672,-0.2304 6.3725,-1.6663 1.3785,1.1192 3.0425,1.837 4.8322,1.837 1.7898,0 3.4538,-0.7178 4.8322,-1.837 1.8054,1.4359 4.0895,2.1541 6.3725,1.6663 a 1.0025,1.0053 0 0 0 -0.41688,-1.9666 c -1.9147,0.4091 -3.904,-0.1799 -5.2883,-1.5681 a 1.0022,1.005 0 0 0 -0.69284,-0.2944 1.0022,1.005 0 0 0 -0.72415,0.2944 c -1.0832,1.0862 -2.5507,1.6957 -4.0826,1.6957 -1.5319,0 -2.9994,-0.6095 -4.0826,-1.6957 A 1.0022,1.005 0 0 0 11.19385,1031.4 Z"
       inkscape:connector-curvature="0" />
  </g>
</svg>
