<?xml version="1.0" encoding="UTF-8" standalone="no"?>
<!-- Created with Inkscape (http://www.inkscape.org/) -->

<svg
   xmlns:dc="http://purl.org/dc/elements/1.1/"
   xmlns:cc="http://creativecommons.org/ns#"
   xmlns:rdf="http://www.w3.org/1999/02/22-rdf-syntax-ns#"
   xmlns:svg="http://www.w3.org/2000/svg"
   xmlns="http://www.w3.org/2000/svg"
   xmlns:sodipodi="http://sodipodi.sourceforge.net/DTD/sodipodi-0.dtd"
   xmlns:inkscape="http://www.inkscape.org/namespaces/inkscape"
   id="svg2"
   height="32"
   width="32"
   version="1.1"
   viewBox="0 0 31.999999 31.999998"
   inkscape:version="0.91 r13725"
   sodipodi:docname="gale-warning.svg">
  <defs
     id="defs8" />
  <sodipodi:namedview
     pagecolor="#ffffff"
     bordercolor="#666666"
     borderopacity="1"
     objecttolerance="10"
     gridtolerance="10"
     guidetolerance="10"
     inkscape:pageopacity="0"
     inkscape:pageshadow="2"
     inkscape:window-width="640"
     inkscape:window-height="480"
     id="namedview6"
     showgrid="false"
     inkscape:zoom="7.375"
     inkscape:cx="13.627119"
     inkscape:cy="16"
     inkscape:window-x="0"
     inkscape:window-y="24"
     inkscape:window-maximized="0"
     inkscape:current-layer="svg2" />
  <metadata
     id="metadata7">
    <rdf:RDF>
      <cc:Work
         rdf:about="">
        <dc:format>image/svg+xml</dc:format>
        <dc:type
           rdf:resource="http://purl.org/dc/dcmitype/StillImage" />
        <dc:title />
      </cc:Work>
    </rdf:RDF>
  </metadata>
  <g
     id="layer1"
     transform="translate(0.99988408,-1020.4)">
    <path
       id="path4472-5"
       style="color:#000000;text-indent:0;text-decoration:none;text-decoration-line:none;text-decoration-style:solid;text-decoration-color:#000000;text-transform:none;block-progression:tb;white-space:normal;isolation:auto;mix-blend-mode:normal;solid-color:#000000;fill-rule:evenodd;color-rendering:auto;image-rendering:auto;shape-rendering:auto"
       d="m 11.969,1026.4 c -0.53991,0.018 -0.96794,0.4596 -0.96875,0.9981 l 0,17.988 c -0.0192,1.3515 2.0192,1.3515 2,0 l 0,-1.9863 7.4473,-3.7187 c 0.7369,-0.3682 0.73798,-1.4154 0.002,-1.7852 l -5.5879,-2.8047 5.586,-2.7891 c 0.7369,-0.3682 0.73803,-1.4153 0.002,-1.7851 l -7.9961,-4.0117 c -0.14985,-0.075 -0.31489,-0.1112 -0.48242,-0.1055 l -0.002,0 z m 1.0312,2.6172 4.7637,2.3828 -4.7637,2.3848 0,-4.7676 z m 0,7.3789 4.7637,2.3828 -4.7637,2.3848 0,-4.7676 z"
       inkscape:connector-curvature="0" />
  </g>
</svg>
