<svg xmlns="http://www.w3.org/2000/svg" height="32" width="32" viewBox="0 0 31.999999 31.999998"><path style="text-indent:0;text-decoration-line:none;text-decoration-style:solid;text-decoration-color:#000;text-transform:none;block-progression:tb;isolation:auto;mix-blend-mode:normal" d="m 11.969,1026.4 c -0.53991,0.018 -0.96794,0.4596 -0.96875,0.9981 l 0,17.988 c -0.0192,1.3515 2.0192,1.3515 2,0 l 0,-1.9863 7.4473,-3.7187 c 0.7369,-0.3682 0.73798,-1.4154 0.002,-1.7852 l -5.5879,-2.8047 5.586,-2.7891 c 0.7369,-0.3682 0.73803,-1.4153 0.002,-1.7851 l -7.9961,-4.0117 c -0.14985,-0.075 -0.31489,-0.1112 -0.48242,-0.1055 l -0.002,0 z m 1.0312,2.6172 4.7637,2.3828 -4.7637,2.3848 0,-4.7676 z m 0,7.3789 4.7637,2.3828 -4.7637,2.3848 0,-4.7676 z" color="#000" white-space="normal" solid-color="#000000" fill-rule="evenodd" transform="translate(1 -1020.4)"/></svg>
