<svg xmlns="http://www.w3.org/2000/svg" height="32" width="32" viewBox="0 0 31.999999 31.999998"><path d="m16.001 1030.4c-0.554 0-1 0.446-1 1v1c0 0.554 0.446 1 1 1s1-0.446 1-1v-1c0-0.554-0.446-1-1-1zm-7.7773 3.2207c-0.25562 0-0.51118 0.099-0.70703 0.2949-0.39175 0.3918-0.39175 1.0224 0 1.4141l0.70703 0.707c0.39173 0.3918 1.0223 0.3918 1.4141 0 0.39174-0.3917 0.39174-1.0223 0-1.414l-0.70703-0.7071c-0.19587-0.1958-0.45142-0.2949-0.70703-0.2949zm15.555 0c-0.25561 0-0.51116 0.099-0.70703 0.2949l-0.70703 0.7071c-0.39174 0.3917-0.39174 1.0223 0 1.414 0.39174 0.3918 1.0223 0.3918 1.4141 0l0.70704-0.707c0.39174-0.3917 0.39174-1.0223 0-1.4141-0.19586-0.1958-0.45142-0.2949-0.70704-0.2949zm-7.7773 0.7793a8 8 0 0 0 -7.4121 5h2.2227a6 6 0 0 1 5.1894 -3 6 6 0 0 1 5.1875 3h2.2227a8 8 0 0 0 -7.4102 -5zm-13 6c-0.554 0-1 0.446-1 1s0.446 1 1 1h26c0.554 0 1-0.446 1-1s-0.446-1-1-1h-26z" transform="translate(0 -1020.4)"/></svg>
