<?xml version="1.0" encoding="UTF-8" standalone="no"?>
<!-- Created with Inkscape (http://www.inkscape.org/) -->
<svg id="svg2" xmlns:rdf="http://www.w3.org/1999/02/22-rdf-syntax-ns#" xmlns="http://www.w3.org/2000/svg" height="32" width="32" version="1.1" xmlns:cc="http://creativecommons.org/ns#" xmlns:dc="http://purl.org/dc/elements/1.1/" viewBox="0 0 31.999999 31.999998">
 <metadata id="metadata7">
  <rdf:RDF>
   <cc:Work rdf:about="">
    <dc:format>image/svg+xml</dc:format>
    <dc:type rdf:resource="http://purl.org/dc/dcmitype/StillImage"/>
    <dc:title/>
   </cc:Work>
  </rdf:RDF>
 </metadata>
 <g id="layer1" transform="translate(0 -1020.4)">
  <path id="path4319-6" style="enable-background:new" d="m11 1028.4s-3 4.3432-3 6c0 1.6569 1.3432 3 3 3s3-1.3431 3-3c0-1.6568-3-6-3-6zm9.0371 1a1.0001 1.0001 0 0 0 -0.89648 0.4883l-7.9844 12.975a1.0001 1.0001 0 1 0 1.7031 1.0488l7.9844-12.975a1.0001 1.0001 0 0 0 -0.80664 -1.5371zm-9.0371 2s1 2.4477 1 3-0.44772 1-1 1c-0.55229 0-1-0.4477-1-1s1-3 1-3zm10 4s-3 4.3432-3 6c0 1.6569 1.3432 3 3 3s3-1.3431 3-3c0-1.6568-3-6-3-6zm0 3s1 2.4477 1 3-0.44772 1-1 1-1-0.4477-1-1 1-3 1-3z"/>
 </g>
</svg>
