<svg xmlns="http://www.w3.org/2000/svg" height="32" width="32" viewBox="0 0 31.999999 31.999998"><path d="m11 1028.4s-3 4.3432-3 6c0 1.6569 1.3432 3 3 3s3-1.3431 3-3c0-1.6568-3-6-3-6zm9.0371 1a1.0001 1.0001 0 0 0 -0.89648 0.4883l-7.9844 12.975a1.0001 1.0001 0 1 0 1.7031 1.0488l7.9844-12.975a1.0001 1.0001 0 0 0 -0.80664 -1.5371zm-9.0371 2s1 2.4477 1 3-0.44772 1-1 1c-0.55229 0-1-0.4477-1-1s1-3 1-3zm10 4s-3 4.3432-3 6c0 1.6569 1.3432 3 3 3s3-1.3431 3-3c0-1.6568-3-6-3-6zm0 3s1 2.4477 1 3-0.44772 1-1 1-1-0.4477-1-1 1-3 1-3z" transform="translate(0 -1020.4)"/></svg>
