<svg xmlns="http://www.w3.org/2000/svg" height="32" width="32" viewBox="0 0 31.999999 31.999998"><path style="text-decoration-color:#000;isolation:auto;mix-blend-mode:normal;block-progression:tb;text-decoration-line:none;text-decoration-style:solid;text-indent:0;text-transform:none" d="m15.589 1023.4c-0.3657 0-0.70424 0.1926-0.88281 0.5117l-2.8826 4.9406c-0.66662 1.1549 1.0658 2.1549 1.7324 1l2.8826-4.9406c0.39474-0.6629-0.0781-1.5042-0.84961-1.5117zm5.4289 5.3672-0.72362 1.2676c-0.27698 0.4798-0.11258 1.0882 0.36718 1.3652 0.47975 0.277 1.0882 0.1146 1.3652-0.3652l0.72362-1.2676c0.27698-0.4798 0.11453-1.0902-0.36522-1.3672-0.59485-0.2857-1.1552 0.0001-1.3671 0.3672zm-9.0169 10.632c-1.6568 0-2.9999 1.3432-2.9999 3 0 1.6569 1.3431 3 2.9999 3s2.9998-1.3431 2.9998-3c0-1.6568-1.3431-3-2.9998-3zm13.071-9.6302-8.7411 15.13c-1.3806 2.3915-4.4384 3.2109-6.8298 1.8301-2.3913-1.3807-3.2106-4.4386-1.83-6.8301l4.0357-6.9869c0.27698-0.4798 0.11009-1.0757-0.36967-1.3527-0.47975-0.277-1.0857-0.1271-1.3627 0.3527l-4.0357 6.9869c-1.9329 3.3481-0.78551 7.6296 2.5624 9.5626s7.6291 0.7855 9.562-2.5625l8.8021-15.236c0.27713-0.4797 0.11259-1.0902-0.36717-1.3672-0.62705-0.2916-1.1347-0.032-1.4262 0.4729zm-8.0871-2.0013-4.6883 8.121c-0.27698 0.4798-0.11454 1.0883 0.36522 1.3653 0.47975 0.277 1.0901 0.1145 1.3671-0.3653l4.6883-8.121c0.27699-0.4798 0.11259-1.0902-0.36717-1.3672-0.59494-0.2879-1.1182-0.061-1.3652 0.3672zm1.6479 5.1309-1.735 3.0191c-0.27698 0.4798-0.11258 1.0883 0.36718 1.3653 0.47975 0.277 1.0882 0.1145 1.3652-0.3653l1.735-3.0191c0.27698-0.4798 0.11453-1.0902-0.36522-1.3672-0.59485-0.2858-1.1552 0.0001-1.3671 0.3672z" fill-rule="evenodd" color="#000" solid-color="#000000" white-space="normal" transform="translate(0 -1020.4)"/></svg>
