<svg xmlns="http://www.w3.org/2000/svg" height="32" width="32" viewBox="0 0 31.999999 31.999998"><path d="m9.7482 1022.4c0.1649 0.6414 0.2495 1.3007 0.2519 1.9629 0 4.4183-3.5817 8-8 8-0.2498-0.0007-0.4994-0.013-0.748-0.037 0.5218 2.0468 1.8319 3.8042 3.6445 4.8887-0.5675 0.9178-0.8963 1.996-0.8965 3.1484 0 3.3137 2.6863 6 6 6h2l-1 5 5-7h-3l2-4h-3l-1.334 4h-0.666c-2.2091 0-4-1.7909-4-4s1.7909-4 4-4c0.3612 0 0.7206 0.051 1.0684 0.1484 0.4232-2.9516 2.9498-5.1446 5.9316-5.1484 2.8668 0 5.3313 2.0325 5.8828 4.8457 0.7628-0.5481 1.6779-0.8438 2.6172-0.8457 2.4853 0 4.5 2.0147 4.5 4.5s-2.0147 4.5-4.5 4.5h-0.5l-1.1562 2h1.6562c3.5899 0 6.5-2.9101 6.5-6.5 0-3.5898-2.9101-6.5-6.5-6.5-0.4987 0-0.9954 0.062-1.4805 0.1777-1.3989-2.5722-4.0914-4.1747-7.0195-4.1777-0.024 0-0.048 0.01-0.072 0.01-0.4661-3.7176-3.4499-6.6137-7.1797-6.9687zm2.0996 2.709c1.6835 0.9082 2.8667 2.573 3.1015 4.541-2.396 0.6394-4.4108 2.3549-5.3652 4.7285-1.2583 0.087-2.399 0.5632-3.3203 1.2989-0.8007-0.4257-1.4985-1.0305-2.043-1.7657 4.1598-0.9832 7.2836-4.4382 7.627-8.8027zm7.2754 17.262c-0.3868-0.049-0.7825 0.1324-0.9903 0.4922l-4.039 6.9961c-0.277 0.4798-0.1146 1.0921 0.3652 1.3691s1.0902 0.1107 1.3672-0.3691l4.039-6.9961c0.277-0.4798 0.1146-1.0882-0.3652-1.3652-0.1199-0.069-0.248-0.1108-0.3769-0.127zm4 0c-0.3868-0.049-0.7825 0.1324-0.9903 0.4922l-4.039 6.9961c-0.277 0.4798-0.1146 1.0921 0.3652 1.3691s1.0902 0.1107 1.3672-0.3691l4.039-6.9961c0.277-0.4798 0.1146-1.0882-0.3652-1.3652-0.1199-0.069-0.248-0.1108-0.3769-0.127z" transform="translate(0 -1020.4)"/></svg>
