<svg xmlns="http://www.w3.org/2000/svg" height="32" width="32" viewBox="0 0 31.999999 31.999998"><path d="m3.0003 1045.4c-0.55228 0.0001-1 0.4497-1 1.0019 0 0.5523 0.44772 1 1 1h16.5c0.68374 0 1.2722 0.4509 1.4492 1.1114 0.17696 0.6604-0.10708 1.3456-0.69922 1.6875-0.59214 0.3418-1.3271 0.2452-1.8106-0.2383-0.94251-0.9817-2.3957 0.4715-1.4141 1.414 1.1167 1.1168 2.8569 1.3463 4.2246 0.5567 1.3677-0.7897 2.0396-2.412 1.6309-3.9375-0.40875-1.5254-1.8016-2.5957-3.3809-2.5957zm5.748-24.963c0.1649 0.6414 0.24953 1.3007 0.25195 1.9629 0 4.4183-3.5817 8-8 8-0.24979-0.0007-0.49941-0.013-0.74805-0.037 0.45224 1.7708 1.4972 3.3334 2.9609 4.4277-0.76071 1.0074-1.2126 2.2576-1.2129 3.6094 0 3.3137 2.6863 6 6 6h18.5c1.5793 0 2.9721-1.0683 3.3809-2.5937 0.40875-1.5255-0.26316-3.1479-1.6309-3.9375-1.3677-0.7897-3.1079-0.5601-4.2246 0.5566-0.98167 0.9425 0.47155 2.3957 1.4141 1.4141 0.48348-0.4835 1.2184-0.5802 1.8106-0.2383 0.59214 0.3419 0.87618 1.027 0.69922 1.6875-0.17697 0.6604-0.76548 1.1113-1.4492 1.1113h-18.5c-2.2091 0-4-1.7909-4-4s1.7909-4 4-4c0.36119 0.001 0.72057 0.051 1.0684 0.1484 0.4232-2.9516 2.9498-5.1446 5.9316-5.1484 2.8668 0 5.3313 2.0325 5.8828 4.8457 0.76276-0.5481 1.6779-0.8438 2.6172-0.8457 1.5842 0 2.9716 0.8232 3.7734 2.0606 0.94121 0.1344 1.8315 0.5106 2.584 1.0917-0.62058-2.943-3.2297-5.1523-6.3574-5.1523-0.49867 0-0.99543 0.062-1.4805 0.1777-1.248-2.2947-3.5282-3.8092-6.084-4.1132-0.44132-3.7431-3.4354-6.6705-7.1875-7.0274zm2.0996 2.709c1.6249 0.8766 2.7857 2.4576 3.0762 4.3359-2.8188 0.3853-5.2582 2.2436-6.3398 4.9336-1.0593 0.074-2.0342 0.4243-2.8672 0.9707-0.57342-0.3884-1.0794-0.8749-1.4961-1.4375 4.1598-0.9832 7.2836-4.4382 7.627-8.8027z" transform="translate(0 -1020.4)"/></svg>
