<?xml version="1.0" encoding="UTF-8" standalone="no"?>
<!-- Created with Inkscape (http://www.inkscape.org/) -->
<svg id="svg2" xmlns:rdf="http://www.w3.org/1999/02/22-rdf-syntax-ns#" xmlns="http://www.w3.org/2000/svg" height="32" width="32" version="1.1" xmlns:cc="http://creativecommons.org/ns#" xmlns:dc="http://purl.org/dc/elements/1.1/" viewBox="0 0 31.999999 31.999998">
 <metadata id="metadata7">
  <rdf:RDF>
   <cc:Work rdf:about="">
    <dc:format>image/svg+xml</dc:format>
    <dc:type rdf:resource="http://purl.org/dc/dcmitype/StillImage"/>
    <dc:title/>
   </cc:Work>
  </rdf:RDF>
 </metadata>
 <g id="layer1" transform="translate(0 -1020.4)">
  <path id="path4251-3" style="color-rendering:auto;text-decoration-color:#000000;color:#000000;isolation:auto;mix-blend-mode:normal;shape-rendering:auto;solid-color:#000000;block-progression:tb;text-decoration-line:none;text-decoration-style:solid;image-rendering:auto;white-space:normal;text-indent:0;text-transform:none" d="m18.965 1028.4a1.0001 1.0001 0 0 0 -0.9277 0.7383l-3.9922 13.973a1.0001 1.0001 0 1 0 1.9219 0.5508l3.9922-13.973a1.0001 1.0001 0 0 0 -0.9942 -1.289zm6.0254 0a1.0001 1.0001 0 0 0 -0.9531 0.7246l-3.9961 13.986a1.0006 1.0006 0 1 0 1.9238 0.5508l0.9317-3.2617h4.205l0.9317 3.2617a1.0001 1.0001 0 1 0 1.9218 -0.5508l-3.996-13.986a1.0001 1.0001 0 0 0 -0.9688 -0.7246zm-14.008 0.016a1.0001 1.0001 0 0 0 -0.9844 1.0136v10.215l-6.1328-10.711a1.0001 1.0001 0 0 0 -1.8672 0.496v13.973a1.0001 1.0001 0 1 0 2 0v-10.215l6.1328 10.711a1.0001 1.0001 0 0 0 1.8672 -0.4961v-13.973a1.0001 1.0001 0 0 0 -1.0156 -1.0137zm14.016 4.6231 1.5313 5.3613h-3.0625l1.5312-5.3613z" fill-rule="evenodd"/>
 </g>
</svg>
