<svg xmlns="http://www.w3.org/2000/svg" height="32" width="32" viewBox="0 0 31.999999 31.999998"><path style="text-decoration-color:#000;text-decoration-line:none;mix-blend-mode:normal;block-progression:tb;text-indent:0;text-decoration-style:solid;isolation:auto;text-transform:none" d="m11.9 6.0002a1.0001 1.0002 0 0 0 -0.48242 0.11134c-3.3253 1.7146-5.418 5.146-5.418 8.8876a1.0001 1.0002 0 0 0 1 1.002h5.1426c-0.0832-0.32141-0.14258-0.65266-0.14258-1.0001 0-0.34745 0.0593-0.67869 0.14258-1.0001h-4.0039c0.2878-2.254 1.499-4.2408 3.3709-5.5298l1.834 3.559c0.49793-0.44552 1.1006-0.77182 1.7754-0.92392l-2.353-4.5627a1.0001 1.0002 0 0 0 -0.866 -0.5431zm8.2012 0a1.0001 1.0002 0 0 0 -0.86523 0.54302l-2.3535 4.563c0.67401 0.15228 1.276 0.4788 1.7734 0.92392l1.8359-3.559c1.8703 1.2889 3.0808 3.2767 3.3691 5.5298l-4.0039-0.002c0.08354 0.32196 0.14258 0.65394 0.14258 1.002 0 0.34658-0.05778 0.67745-0.14062 0.99815h5.1406a1.0001 1.0002 0 0 0 1 -0.99815c0.000044-3.7416-2.0927-7.175-5.418-8.8896a1.0001 1.0002 0 0 0 -0.479 -0.1112zm-7.078 11.65-2.861 4.274c-0.30665 0.45907-0.18339 1.0798 0.27539 1.3868 3.3612 2.2501 7.7541 2.253 11.117 0.006 0.46066-0.3065 0.58494-0.92884 0.27734-1.3888l-2.8574-4.2758c-0.44773 0.50224-1.0155 0.88518-1.6641 1.1114l2.2188 3.4033c-1.1212 0.55746-2.327 0.83581-3.5326 0.83512s-2.4111-0.28042-3.5318-0.83912l2.2188-3.3994c-0.648-0.227-1.214-0.611-1.661-1.113zm4.9765-2.6484c0 1.1047-0.89543 2.0002-2 2.0002s-2-0.89552-2-2.0002 0.89543-2.0002 2-2.0002 2 0.89552 2 2.0002z" color="#000" solid-color="#000000" white-space="normal"/></svg>
