<svg xmlns="http://www.w3.org/2000/svg" height="32" width="32" viewBox="0 0 31.999999 31.999998"><path style="text-decoration-color:#000000;isolation:auto;mix-blend-mode:normal;block-progression:tb;text-decoration-line:none;text-decoration-style:solid;text-indent:0;text-transform:none" d="m19.87 1036.4 5.1303-0.0008a1.0001 1.0001 0 0 0 0.9997 -0.9989c0-3.5711-1.9073-6.8748-5-8.6603a1.0001 1.0001 0 0 0 -1.3649 0.3663l-2.5641 4.4416a4 4 0 0 1 1.7312 0.9986l1.9966-3.4598c1.7045 1.2971 2.7973 3.1898 3.0683 5.3145l-3.998 0.001a4 4 0 0 1 0.0009 1.9977zm-4.939-4.8511-2.5658-4.4426a1.0001 1.0001 0 0 0 -1.365 -0.3663c-3.0926 1.7855-5 5.0892-5 8.6603a1.0001 1.0001 0 0 0 0.9997 0.9989l5.1286-0.0002a4 4 0 0 1 -0.0008 -1.9986l-3.9946 0.0008c0.2711-2.1247 1.3639-4.0174 3.0684-5.3145l1.9999 3.4618a4 4 0 0 1 1.7296 -0.9996zm-1.7317 6.7029-2.5644 4.4433a1.0001 1.0001 0 0 0 0.365 1.4c3.0926 1.7855 6.9074 1.7855 10 0a1.0001 1.0001 0 0 0 0.3653 -1.3653l-2.5645-4.4414a4 4 0 0 1 -1.7305 1l1.9981 3.459c-1.9756 0.8276-4.1612 0.8277-6.1367 0l1.998-3.4629a4 4 0 0 1 -1.7305 -0.998zm4.801-2.8a2 2 0 0 1 -2 2 2 2 0 0 1 -2 -2 2 2 0 0 1 2 -2 2 2 0 0 1 2 2z" color="#000" solid-color="#000000" white-space="normal" transform="translate(0 -1020.4)"/></svg>