<?xml version="1.0" encoding="UTF-8" standalone="no"?>
<!-- Created with Inkscape (http://www.inkscape.org/) -->
<svg id="svg2" xmlns:rdf="http://www.w3.org/1999/02/22-rdf-syntax-ns#" xmlns="http://www.w3.org/2000/svg" height="32" width="32" version="1.1" xmlns:cc="http://creativecommons.org/ns#" xmlns:dc="http://purl.org/dc/elements/1.1/" viewBox="0 0 31.999999 31.999998">
 <metadata id="metadata7">
  <rdf:RDF>
   <cc:Work rdf:about="">
    <dc:format>image/svg+xml</dc:format>
    <dc:type rdf:resource="http://purl.org/dc/dcmitype/StillImage"/>
    <dc:title/>
   </cc:Work>
  </rdf:RDF>
 </metadata>
 <g id="layer1" transform="translate(0 -1020.4)">
  <path id="path4194-8" style="enable-background:new" d="m19 1028.4c-2.8956 0.001-5.5646 1.5668-6.9785 4.0938-0.33719-0.06-0.67893-0.092-1.0215-0.094-3.3137 0-6 2.6862-6 6 0 3.3137 2.6863 6 6 6h8c4.4183 0 8-3.5818 8-8 0-4.4183-3.5817-8-8-8zm0 2c3.3137 0 6 2.6863 6 6s-2.6863 6-6 6h-8c-2.2091 0-4-1.7909-4-4s1.7909-4 4-4c0.76723 0 1.5178 0.2241 2.1621 0.6406 0.6316-2.7152 3.0502-4.6378 5.8379-4.6406z"/>
 </g>
</svg>
