<svg xmlns="http://www.w3.org/2000/svg" height="32" width="32" viewBox="0 0 31.999999 31.999998"><path d="m16.001 1025.4c-3.866 0-7 3.134-7 7 0.003 3.4773 2.5584 6.425 6 6.9219v3.0781h-5c-0.55365 0-1 0.4463-1 1 0 0.5536 0.44636 1 1 1h12c0.55364 0 1-0.4464 1-1 0-0.5537-0.44636-1-1-1h-5v-3.0801c3.4409-0.4966 5.9959-3.4433 6-6.9199 0-3.866-3.134-7-7-7zm0 2c2.7614 0 5 2.2385 5 5 0 2.7614-2.2386 5-5 5s-5-2.2386-5-5c0-2.7615 2.2386-5 5-5zm0 1c-1.808 0-3.3953 1.2184-3.8633 2.9648-0.21725 0.6686 0.81961 0.9457 0.96484 0.2579 0.35206-1.314 1.5382-2.2227 2.8984-2.2227s2.5464 0.9087 2.8984 2.2227c0.14523 0.6878 1.1821 0.4108 0.96484-0.2579-0.46794-1.7464-2.0553-2.9648-3.8633-2.9648zm-1.4883 3c-0.0169-0.0002-0.0339 0.0005-0.0508 0-0.33649 0.024-0.55306 0.3677-0.42969 0.6817l1.5 3.9843c0.23434 0.6251 1.172 0.2735 0.9375-0.3515l-1.5-3.9844c-0.0692-0.1944-0.25077-0.3263-0.45703-0.3321zm-4.5117 14c-0.55365 0-1 0.4463-1 1 0 0.5536 0.44636 1 1 1h12c0.55364 0 1-0.4464 1-1 0-0.5537-0.44636-1-1-1z" transform="translate(0 -1020.4)"/></svg>
