<svg xmlns="http://www.w3.org/2000/svg" height="32" width="32" viewBox="0 0 31.999999 31.999998"><path d="m10.954 1031.4c-2.2231-0.024-4.8201 0.378-6.3164 0.9981h-0.63477c-0.55514 0-1.002 0.418-1.002 0.9375 0 0-0.0173 0.38 0.13672 0.5723-0.65036 2.2568 1.1632 6.4902 4.9023 6.4902 3.6337 0 6.0301-3.4191 6.7422-6h2.4375c0.71207 2.5809 3.1085 6 6.7422 6 3.7392 0 5.5527-4.2334 4.9023-6.4902 0.15401-0.1923 0.13672-0.5723 0.13672-0.5723 0-0.5195-0.44681-0.9375-1.002-0.9375h-0.63477c-1.4963-0.6201-4.0933-1.0223-6.3164-0.9981-2.2231 0.024-4.0723 0.4748-4.0723 1.5625 0 0.1372 0.0115 0.2846 0.0273 0.4356h-2.0039c0.0158-0.151 0.0273-0.2984 0.0273-0.4356 0-1.0877-1.8492-1.5383-4.0723-1.5625zm-0.64259 1.4727c1.1212-0.035 2.1008 0.085 2.5742 0.4316 1.2626 0.9237-2.5108 5.4636-4.877 5.2813-2.3661-0.1823-4.4082-3.5795-2.8223-4.5527 0.9912-0.6083 3.2563-1.1013 5.125-1.1602zm11.379 0c1.8687 0.059 4.1338 0.5519 5.125 1.1602 1.5859 0.9732-0.45612 4.3704-2.8223 4.5527s-6.1396-4.3576-4.877-5.2813c0.47348-0.3463 1.453-0.4669 2.5742-0.4316z" transform="translate(0 -1020.4)"/></svg>
