<svg xmlns="http://www.w3.org/2000/svg" height="32" width="32" viewBox="0 0 31.999999 31.999998"><path d="m16 1027.4c-0.554 0-1 0.4459-1 1v1c0 0.554 0.446 1 1 1s1-0.446 1-1v-1c0-0.5541-0.446-1-1-1zm-7.7773 3.2207c-0.25562 0-0.51118 0.099-0.70703 0.2949-0.39175 0.3918-0.39175 1.0224 0 1.4141l0.70703 0.707c0.39173 0.3918 1.0223 0.3918 1.4141 0 0.39174-0.3917 0.39174-1.0223 0-1.414l-0.70703-0.7071c-0.19587-0.1958-0.45142-0.2949-0.70703-0.2949zm15.555 0c-0.25561 0-0.51116 0.099-0.70703 0.2949l-0.70703 0.7071c-0.39174 0.3917-0.39174 1.0223 0 1.414 0.39174 0.3918 1.0223 0.3918 1.4141 0l0.70704-0.707c0.39174-0.3917 0.39174-1.0223 0-1.4141-0.19586-0.1958-0.45142-0.2949-0.70704-0.2949zm-7.7773 0.7793c-4.4183 0-8 3.5816-8 8 0.004 0.6751 0.093 1.3471 0.26563 2h2.084c-0.22931-0.6421-0.34754-1.3183-0.34961-2 0-3.3137 2.6863-6 6-6s6 2.6863 6 6c-0.003 0.6818-0.12159 1.3581-0.35156 2h2.0918c0.17062-0.6531 0.2579-1.3251 0.25977-2 0-4.4184-3.5817-8-8-8zm-0.0254 4c-0.26073 0-0.50953 0.1099-0.69336 0.2949l-2.9902 3c-0.97858 0.9453 0.47816 2.394 1.418 1.4102l1.291-1.2969v3.5918h-12c-0.554 0-1 0.4459-1 1 0 0.554 0.446 1 1 1h13.016 12.984c0.554 0 1-0.446 1-1 0-0.5541-0.446-1-1-1h-12v-3.5762l1.2832 1.2832c0.94251 0.9818 2.3958-0.4715 1.4141-1.414l-3-3c-0.19133-0.1914-0.45206-0.2971-0.72266-0.293zm-10.975 3c-0.554 0-1 0.4459-1 1 0 0.554 0.446 1 1 1h1c0.554 0 1-0.446 1-1 0-0.5541-0.446-1-1-1zm21 0c-0.554 0-1 0.4459-1 1 0 0.554 0.446 1 1 1h1c0.554 0 1-0.446 1-1 0-0.5541-0.446-1-1-1z" transform="translate(0 -1020.4)"/></svg>
