<?xml version="1.0" encoding="UTF-8" standalone="no"?>
<!-- Created with Inkscape (http://www.inkscape.org/) -->

<svg
   xmlns:dc="http://purl.org/dc/elements/1.1/"
   xmlns:cc="http://creativecommons.org/ns#"
   xmlns:rdf="http://www.w3.org/1999/02/22-rdf-syntax-ns#"
   xmlns:svg="http://www.w3.org/2000/svg"
   xmlns="http://www.w3.org/2000/svg"
   xmlns:sodipodi="http://sodipodi.sourceforge.net/DTD/sodipodi-0.dtd"
   xmlns:inkscape="http://www.inkscape.org/namespaces/inkscape"
   id="svg2"
   height="32"
   width="32"
   version="1.1"
   viewBox="0 0 31.999999 31.999998"
   inkscape:version="0.91 r13725"
   sodipodi:docname="tornado.svg">
  <defs
     id="defs8" />
  <sodipodi:namedview
     pagecolor="#ffffff"
     bordercolor="#666666"
     borderopacity="1"
     objecttolerance="10"
     gridtolerance="10"
     guidetolerance="10"
     inkscape:pageopacity="0"
     inkscape:pageshadow="2"
     inkscape:window-width="640"
     inkscape:window-height="480"
     id="namedview6"
     showgrid="false"
     inkscape:zoom="7.375"
     inkscape:cx="13.627119"
     inkscape:cy="16"
     inkscape:window-x="0"
     inkscape:window-y="24"
     inkscape:window-maximized="0"
     inkscape:current-layer="svg2" />
  <metadata
     id="metadata7">
    <rdf:RDF>
      <cc:Work
         rdf:about="">
        <dc:format>image/svg+xml</dc:format>
        <dc:type
           rdf:resource="http://purl.org/dc/dcmitype/StillImage" />
        <dc:title />
      </cc:Work>
    </rdf:RDF>
  </metadata>
  <g
     id="layer1"
     transform="translate(0,-1021.4)">
    <path
       id="path4458-9-6"
       style="enable-background:new"
       d="m 13,1045.4 c -0.554,0 -1,0.446 -1,1 0,0.554 0.446,1 1,1 l 2,0 c 0.554,0 1,-0.446 1,-1 0,-0.554 -0.446,-1 -1,-1 l -2,0 z m 1.834,-4 c -0.46167,0 -0.83398,0.446 -0.83398,1 0,0.554 0.37231,1 0.83398,1 l 3.332,0 c 0.46167,0 0.83398,-0.446 0.83398,-1 0,-0.554 -0.37231,-1 -0.83398,-1 l -3.332,0 z m 0.94336,-4 c -0.43089,0 -0.77734,0.446 -0.77734,1 0,0.554 0.34645,1 0.77734,1 l 5.4453,0 c 0.43089,0 0.77734,-0.446 0.77734,-1 0,-0.554 -0.34645,-1 -0.77734,-1 l -5.4453,0 z m -0.95703,-4 c -0.46893,0 -0.8457,0.446 -0.8457,1 0,0.554 0.37677,1 0.8457,1 l 9.334,0 c 0.46893,0 0.8457,-0.446 0.8457,-1 0,-0.554 -0.37677,-1 -0.8457,-1 l -9.334,0 z m -5.031,-4 c -0.43737,0 -0.78929,0.446 -0.78929,1 0,0.554 0.35192,1 0.78929,1 l 13.421,0 c 0.43737,0 0.78929,-0.446 0.78929,-1 0,-0.554 -0.35192,-1 -0.78929,-1 l -13.421,0 z m -4.8726,-4 c -0.50785,0 -0.91667,0.446 -0.91667,1 0,0.554 0.40882,1 0.91667,1 l 20.167,0 c 0.50785,0 0.91667,-0.446 0.91667,-1 0,-0.554 -0.40882,-1 -0.91667,-1 l -20.167,0 z"
       inkscape:connector-curvature="0" />
  </g>
</svg>
