<svg xmlns="http://www.w3.org/2000/svg" height="32" width="32" viewBox="0 0 31.999999 31.999998"><path style="text-decoration-color:#000;isolation:auto;mix-blend-mode:normal;block-progression:tb;text-decoration-line:none;text-decoration-style:solid;text-indent:0;text-transform:none" d="m16.008 1026.4a1.0001 1.0001 0 0 0 -0.9023 0.5527l-9 18a1.0001 1.0001 0 0 0 0.8945 1.4472h18a1.0001 1.0001 0 0 0 0.8945 -1.4472l-9-18a1.0001 1.0001 0 0 0 -0.8867 -0.5527zm-0.01 3.2363 6.586 13.17c-1.9952 1.7057-5.5858 1.5938-5.5858 1.5938-1.6568 0-3-1.3432-3-3s1.3432-3 3-3c0.4507 0.0009 0.8953 0.1041 1.3008 0.3007-1.1296-1.1612-2.6808-1.8163-4.3008-1.8163-0.7623 0-1.3819 0.2194-1.9141 0.578l3.9141-7.8261z" fill-rule="evenodd" color="#000" solid-color="#000000" white-space="normal" transform="translate(0 -1020.4)"/></svg>
