<svg xmlns="http://www.w3.org/2000/svg" height="32" width="32" viewBox="0 0 31.999999 31.999998"><path style="text-decoration-color:#000;isolation:auto;mix-blend-mode:normal;block-progression:tb;text-decoration-line:none;text-decoration-style:solid;text-indent:0;text-transform:none" d="m16.001 1027.4c-1.3816 0-2.7631 0.3562-4 1.0703-2.4738 1.4283-4 4.0732-4 6.9297 0.00006 0.5523 0.44774 0.9999 1 1h6v5.1109c0 0.7288-0.34798 1.3729-0.80664 1.6797s-0.93196 0.3068-1.3906 0c-0.45866-0.3068-0.80664-0.9509-0.80664-1.6797 0.008-0.5637-0.45187-1.0224-1.0156-1.0136-0.55153 0.01-0.99195 0.4621-0.9844 1.0136 0 1.3427 0.60566 2.6129 1.6953 3.3418 1.0897 0.7289 2.5236 0.7289 3.6133 0s1.6953-1.9991 1.6953-3.3418v-5.1109h6c0.55226-0.0001 0.99994-0.4477 1-1 0-2.8565-1.5262-5.5014-4-6.9297-1.2369-0.7141-2.6184-1.0703-4-1.0703zm0 1.9981c1.0356 0 2.0711 0.2683 3 0.8046 1.5482 0.8939 2.425 2.4731 2.7324 4.1973h-11.465c0.3074-1.7242 1.1843-3.3034 2.7324-4.1973 0.9289-0.5363 1.9644-0.8046 3-0.8046z" color="#000" solid-color="#000000" white-space="normal" transform="translate(0 -1020.4)"/></svg>
