<?xml version="1.0" encoding="UTF-8" standalone="no"?>
<!-- Created with Inkscape (http://www.inkscape.org/) -->
<svg id="svg2" xmlns:rdf="http://www.w3.org/1999/02/22-rdf-syntax-ns#" xmlns="http://www.w3.org/2000/svg" height="32" width="32" version="1.1" xmlns:cc="http://creativecommons.org/ns#" xmlns:dc="http://purl.org/dc/elements/1.1/" viewBox="0 0 31.999999 31.999998">
 <metadata id="metadata7">
  <rdf:RDF>
   <cc:Work rdf:about="">
    <dc:format>image/svg+xml</dc:format>
    <dc:type rdf:resource="http://purl.org/dc/dcmitype/StillImage"/>
    <dc:title/>
   </cc:Work>
  </rdf:RDF>
 </metadata>
 <g id="layer1" transform="translate(0 -1020.4)">
  <path id="rect8687-3" style="enable-background:new" d="m16 1025.4c-1.645 0-3 1.355-3 3 0 0.5444 0.15975 1.0499 0.41797 1.4922-1.7049 0.672-2.9717 1.9774-3.832 3.5449-1.151 2.097-1.7728 4.6416-2.3945 7.086-1.2638 0.3532-2.1914 1.4974-2.1914 2.8769v1c0 1.662 1.338 3 3 3h16c1.662 0 3-1.338 3-3v-1c0-1.3795-0.92765-2.5237-2.1914-2.8769-0.62191-2.4451-1.2438-4.9908-2.3945-7.0879-0.86015-1.5675-2.1268-2.8735-3.832-3.5449 0.25768-0.442 0.41797-0.9465 0.41797-1.4903 0-1.645-1.355-3-3-3zm0 2a1 1 0 0 1 1 1 1 1 0 0 1 -1 1 1 1 0 0 1 -1 -1 1 1 0 0 1 1 -1zm0 4h0.002c2.3853 0 3.6183 1.0995 4.6602 2.9981 0.87572 1.5959 1.4582 3.7735 2.0332 6.0019h-13.391c0.57491-2.2275 1.1592-4.4061 2.0352-6.0019 1.042-1.8987 2.2756-2.9947 4.6601-2.9981zm-8 11h16c0.554 0 1 0.446 1 1v1c0 0.554-0.446 1-1 1h-16c-0.554 0-1-0.446-1-1v-1c0-0.554 0.446-1 1-1z"/>
 </g>
</svg>
